HIERARCHY
ROOT Hips
{
    OFFSET 0.0 0.0 0.0
    CHANNELS 6 Xposition Yposition Zposition Zrotation Xrotation Yrotation
    JOINT LeftUpLeg
    {
        OFFSET 12.481166578582648 0.0 0.0
        CHANNELS 3 Zrotation Xrotation Yrotation
        JOINT LeftLeg
        {
            OFFSET 0.0 0.0 -50.501368270938585
            CHANNELS 3 Zrotation Xrotation Yrotation
            JOINT LeftFoot
            {
                OFFSET 0.0 0.0 -37.44323608246586
                CHANNELS 3 Zrotation Xrotation Yrotation
                JOINT LeftToeBase
                {
                    OFFSET 0.0 -12.272526091637435 0.0
                    CHANNELS 3 Zrotation Xrotation Yrotation
                    End Site
                    {
                        OFFSET 0 0 0
                    }
                }
            }
        }
    }
    JOINT RightUpLeg
    {
        OFFSET -12.481166578582648 0.0 0.0
        CHANNELS 3 Zrotation Xrotation Yrotation
        JOINT RightLeg
        {
            OFFSET 0.0 0.0 -50.501368270938585
            CHANNELS 3 Zrotation Xrotation Yrotation
            JOINT RightFoot
            {
                OFFSET 0.0 0.0 -37.44323608246586
                CHANNELS 3 Zrotation Xrotation Yrotation
                JOINT RightToeBase
                {
                    OFFSET 0.0 -12.272526091637435 0.0
                    CHANNELS 3 Zrotation Xrotation Yrotation
                    End Site
                    {
                        OFFSET 0 0 0
                    }
                }
            }
        }
    }
    JOINT Spine
    {
        OFFSET 0.0 0.0 12.064896449021303
        CHANNELS 3 Zrotation Xrotation Yrotation
        JOINT Spine1
        {
            OFFSET 0.0 0.0 11.960371657409608
            CHANNELS 3 Zrotation Xrotation Yrotation
            JOINT Spine2
            {
                OFFSET 0.0 0.0 11.960371657409608
                CHANNELS 3 Zrotation Xrotation Yrotation
                JOINT Spine3
                {
                    OFFSET 0.0 0.0 11.960371657409604
                    CHANNELS 3 Zrotation Xrotation Yrotation
                    JOINT Spine4
                    {
                        OFFSET 0.0 0.0 11.960371657409612
                        CHANNELS 3 Zrotation Xrotation Yrotation
                        JOINT RightShoulder
                        {
                            OFFSET -21.14127522045111 0.0 0.0
                            CHANNELS 3 Zrotation Xrotation Yrotation
                            JOINT RightArm
                            {
                                OFFSET -31.344809157605425 0.0 0.0
                                CHANNELS 3 Zrotation Xrotation Yrotation
                                JOINT RightForeArm
                                {
                                    OFFSET -31.19763595432745 0.0 0.0
                                    CHANNELS 3 Zrotation Xrotation Yrotation
                                    JOINT RightHand
                                    {
                                        OFFSET -12.05566485286791 0.0 0.0
                                        CHANNELS 3 Zrotation Xrotation Yrotation
                                        End Site
                                        {
                                            OFFSET 0 0 0
                                        }
                                    }
                                }
                            }
                        }
                        JOINT LeftShoulder
                        {
                            OFFSET 21.14127522045111 0.0 0.0
                            CHANNELS 3 Zrotation Xrotation Yrotation
                            JOINT LeftArm
                            {
                                OFFSET 31.344809157605425 0.0 0.0
                                CHANNELS 3 Zrotation Xrotation Yrotation
                                JOINT LeftForeArm
                                {
                                    OFFSET 31.19763595432745 0.0 0.0
                                    CHANNELS 3 Zrotation Xrotation Yrotation
                                    JOINT LeftHand
                                    {
                                        OFFSET 12.05566485286791 0.0 0.0
                                        CHANNELS 3 Zrotation Xrotation Yrotation
                                        End Site
                                        {
                                            OFFSET 0 0 0
                                        }
                                    }
                                }
                            }
                        }
                        JOINT Neck
                        {
                            OFFSET 0.0 0.0 11.960371565550519
                            CHANNELS 3 Zrotation Xrotation Yrotation
                            JOINT Head
                            {
                                OFFSET 0.0 0.0 25.11069871723343
                                CHANNELS 3 Zrotation Xrotation Yrotation
                                End Site
                                {
                                    OFFSET 0 0 0
                                }
                            }
                        }
                    }
                }
            }
        }
    }
}
MOTION
Frames: 4
Frame Time: 0.03333333333333333
40.59056489467621 -24.979968059062962 455.0869256973267 118.2659663308251 -79.11007862466425 117.2267313965864 -1.0679007891712726 3.4734626080198603 -23.965807564029816 4.471657939462797 -1.6702243765858733 33.735591737813145 -100.27215695143732 9.54166404439055e-15 68.32510836963273 0.0 0.0 0.0 16.49223287689979 18.58615723037825 18.34742768854105 -27.376200463084476 -11.791685156682494 -45.49101486786386 98.41073257980312 -1.90833280887811e-14 -71.1119343824046 0.0 0.0 0.0 -0.05559843948315305 1.6004576605467116 -0.24518004594004453 0.0 0.0 0.0 0.0 0.0 0.0 0.0 0.0 0.0 0.0 0.0 0.0 126.61350232685639 11.333932440285992 -138.88755122139133 113.35975003536899 -1.3391473049146513e-14 -2.7891215780773586e-15 9.552762273315242e-15 -53.43133739339852 8.368473176350965e-15 4.770832022195277e-15 6.620859447075238e-32 1.5902773407317588e-15 -164.2649533924657 -0.9202263692504502 147.78675887823962 -118.41665752854975 -6.27850285151525e-15 1.890263550692788e-15 6.163645210731484e-15 -31.249206467934386 -1.5788214387728563e-15 0.0 0.0 0.0 -4.425602170257701 -1.171233500502608e-14 1.934632915496091e-15 -3.975693351829396e-16 0.0 0.0
40.59056489467621 -24.979968059062962 455.0869256973267 118.2659663308251 -79.11007862466425 117.2267313965864 -1.0679007891712726 3.4734626080198603 -23.965807564029816 4.471657939462797 -1.6702243765858733 33.735591737813145 -100.27215695143732 9.54166404439055e-15 68.32510836963273 0.0 0.0 0.0 16.49223287689979 18.58615723037825 18.34742768854105 -27.376200463084476 -11.791685156682494 -45.49101486786386 98.41073257980312 -1.90833280887811e-14 -71.1119343824046 0.0 0.0 0.0 -0.05559843948315305 1.6004576605467116 -0.24518004594004453 0.0 0.0 0.0 0.0 0.0 0.0 0.0 0.0 0.0 0.0 0.0 0.0 126.61350232685639 11.333932440285992 -138.88755122139133 113.35975003536899 -1.3391473049146513e-14 -2.7891215780773586e-15 9.552762273315242e-15 -53.43133739339852 8.368473176350965e-15 4.770832022195277e-15 6.620859447075238e-32 1.5902773407317588e-15 -164.2649533924657 -0.9202263692504502 147.78675887823962 -118.41665752854975 -6.27850285151525e-15 1.890263550692788e-15 6.163645210731484e-15 -31.249206467934386 -1.5788214387728563e-15 0.0 0.0 0.0 -4.425602170257701 -1.171233500502608e-14 1.934632915496091e-15 -3.975693351829396e-16 0.0 0.0
40.59056489467621 -24.979968059062962 455.0869256973267 118.2659663308251 -79.11007862466425 117.2267313965864 -1.0679007891712726 3.4734626080198603 -23.965807564029816 4.471657939462797 -1.6702243765858733 33.735591737813145 -100.27215695143732 9.54166404439055e-15 68.32510836963273 0.0 0.0 0.0 16.49223287689979 18.58615723037825 18.34742768854105 -27.376200463084476 -11.791685156682494 -45.49101486786386 98.41073257980312 -1.90833280887811e-14 -71.1119343824046 0.0 0.0 0.0 -0.05559843948315305 1.6004576605467116 -0.24518004594004453 0.0 0.0 0.0 0.0 0.0 0.0 0.0 0.0 0.0 0.0 0.0 0.0 126.61350232685639 11.333932440285992 -138.88755122139133 113.35975003536899 -1.3391473049146513e-14 -2.7891215780773586e-15 9.552762273315242e-15 -53.43133739339852 8.368473176350965e-15 4.770832022195277e-15 6.620859447075238e-32 1.5902773407317588e-15 -164.2649533924657 -0.9202263692504502 147.78675887823962 -118.41665752854975 -6.27850285151525e-15 1.890263550692788e-15 6.163645210731484e-15 -31.249206467934386 -1.5788214387728563e-15 0.0 0.0 0.0 -4.425602170257701 -1.171233500502608e-14 1.934632915496091e-15 -3.975693351829396e-16 0.0 0.0
40.61245222091675 -24.957049548625946 455.0328763961793 118.94848207196306 -79.2747733391869 117.9120208358137 -1.2436920945219465 3.671463881137625 -23.933954028977627 4.730999740936294 -1.7724958938410833 33.66681375788369 -100.2671914718331 -3.1805546814635168e-15 68.32168328869109 0.0 0.0 0.0 16.566382243276767 18.6387423663284 18.39744390507475 -27.241975713078336 -11.674219190154963 -45.64447830414829 98.36015883920014 2.5444437451708134e-14 -70.87958117594535 0.0 0.0 1.5902773407317584e-15 -0.05167914336962335 1.5725107859813092 -0.23272168417487346 0.0 4.969616689786746e-17 0.0 0.0 4.969616689786746e-17 0.0 0.0 4.969616689786746e-17 0.0 0.0 4.969616689786746e-17 0.0 118.37101974033351 6.640004311944758 -133.1613467924611 106.46568654270868 7.951373920023403e-15 -1.425815883952332e-17 6.715054037324638e-16 -58.978902358622825 3.79756288414867e-16 1.5902773407317584e-15 0.0 0.0 -163.38389655250475 -0.6402229055884084 147.80892575256723 -117.96687683681219 -4.632140345920911e-15 4.640686389237542e-15 -6.254866589505349e-16 -36.83058054367057 -6.912688753857947e-15 -1.5902773407317584e-15 0.0 0.0 -4.436186075837447 -3.2963738920324935e-15 -9.234112786419518e-16 -3.9756933518293955e-16 -1.242404172446686e-17 -3.9756933518293955e-16
